<svg id="visual" viewBox="0 0 900 600" width="900" height="600" xmlns="http://www.w3.org/2000/svg" xmlns:xlink="http://www.w3.org/1999/xlink" version="1.1"><rect x="0" y="0" width="900" height="600" fill="#cfdecc"></rect><path d="M0 275L30 266.7C60 258.3 120 241.7 180 260.2C240 278.7 300 332.3 360 341.3C420 350.3 480 314.7 540 312.5C600 310.3 660 341.7 720 357.3C780 373 840 373 870 373L900 373L900 601L870 601C840 601 780 601 720 601C660 601 600 601 540 601C480 601 420 601 360 601C300 601 240 601 180 601C120 601 60 601 30 601L0 601Z" fill="#009473"></path><path d="M0 288L30 302.7C60 317.3 120 346.7 180 353C240 359.3 300 342.7 360 334.7C420 326.7 480 327.3 540 316C600 304.7 660 281.3 720 296.3C780 311.3 840 364.7 870 391.3L900 418L900 601L870 601C840 601 780 601 720 601C660 601 600 601 540 601C480 601 420 601 360 601C300 601 240 601 180 601C120 601 60 601 30 601L0 601Z" fill="#68ad89"></path><path d="M0 461L30 463.2C60 465.3 120 469.7 180 456.7C240 443.7 300 413.3 360 414C420 414.7 480 446.3 540 446.8C600 447.3 660 416.7 720 398C780 379.3 840 372.7 870 369.3L900 366L900 601L870 601C840 601 780 601 720 601C660 601 600 601 540 601C480 601 420 601 360 601C300 601 240 601 180 601C120 601 60 601 30 601L0 601Z" fill="#9fc5a7"></path><path d="M0 490L30 481.8C60 473.7 120 457.3 180 458.3C240 459.3 300 477.7 360 490.5C420 503.3 480 510.7 540 506.3C600 502 660 486 720 481.3C780 476.7 840 483.3 870 486.7L900 490L900 601L870 601C840 601 780 601 720 601C660 601 600 601 540 601C480 601 420 601 360 601C300 601 240 601 180 601C120 601 60 601 30 601L0 601Z" fill="#cfdecc"></path></svg>